<?xml version="1.0" standalone="no"?>
<!DOCTYPE svg PUBLIC "-//W3C//DTD SVG 20010904//EN"
 "http://www.w3.org/TR/2001/REC-SVG-20010904/DTD/svg10.dtd">
<svg version="1.0" xmlns="http://www.w3.org/2000/svg"
 width="260.000000pt" height="260.000000pt" viewBox="0 0 260.000000 260.000000"
 preserveAspectRatio="xMidYMid meet">
<metadata>
Created by potrace 1.11, written by Peter Selinger 2001-2013
</metadata>
<g transform="translate(0.000000,260.000000) scale(0.100000,-0.100000)"
fill="#000000" stroke="none">
<path d="M940 1538 c-358 -841 -400 -935 -448 -998 -40 -53 -61 -67 -129 -86
-49 -13 -63 -21 -63 -35 0 -18 15 -19 304 -19 299 0 305 0 303 20 -1 11 -6 20
-12 21 -140 11 -207 53 -206 130 0 54 19 108 106 312 l67 157 373 0 373 0 47
-113 c121 -286 138 -352 109 -412 -20 -42 -81 -70 -164 -74 -9 -1 -16 -10 -16
-21 0 -20 7 -20 378 -20 371 0 378 0 378 20 0 11 -3 20 -7 21 -75 7 -138 33
-178 73 -56 56 -94 135 -243 492 -71 170 -173 415 -228 544 -54 129 -153 366
-219 525 -109 261 -124 290 -146 293 -23 2 -41 -37 -379 -830z m555 -223 l72
-170 -325 -3 c-179 -1 -327 0 -329 2 -2 2 19 57 47 123 29 65 79 181 112 258
33 77 73 168 89 203 16 35 29 65 29 66 0 2 12 30 26 62 l26 58 90 -214 c50
-118 123 -291 163 -385z"/>
</g>
</svg>
